<?xml version="1.0" encoding="utf-8"?>
<!-- Generator: Adobe Illustrator 19.2.0, SVG Export Plug-In . SVG Version: 6.00 Build 0)  -->
<svg version="1.1" id="icon" xmlns="http://www.w3.org/2000/svg" xmlns:xlink="http://www.w3.org/1999/xlink" x="0px" y="0px"
	 viewBox="0 0 26 26" style="enable-background:new 0 0 26 26;" xml:space="preserve">
<style type="text/css">
	.Arched_x0020_Green{fill:url(#SVGID_1_);stroke:#FFFFFF;stroke-width:0.25;stroke-miterlimit:1;}
	.st0{fill:#FFFFFF;}
</style>
<linearGradient id="SVGID_1_" gradientUnits="userSpaceOnUse" x1="-229.5" y1="26" x2="-228.7929" y2="25.2929">
	<stop  offset="0" style="stop-color:#20AC4B"/>
	<stop  offset="0.9831" style="stop-color:#19361A"/>
</linearGradient>
<g>
	<path class="st0" d="M20,13.7c0,4.6-6.4,7.5-6.7,7.6c-0.1,0-0.2,0.1-0.3,0.1s-0.2,0-0.3-0.1c-0.3-0.1-6.7-3-6.7-7.6V5.3
		C6,5,6.4,4.6,6.7,4.6h12.5C19.6,4.6,20,5,20,5.3V13.7z M17.9,6.7H13v12.4c0.6-0.3,1.4-0.8,2.3-1.5c1.2-0.9,2.6-2.3,2.6-3.9V6.7z"/>
</g>
</svg>
