<?xml version="1.0" encoding="utf-8"?>
<!-- Generator: Adobe Illustrator 18.1.1, SVG Export Plug-In . SVG Version: 6.00 Build 0)  -->
<svg version="1.1" class="modules-img" xmlns="http://www.w3.org/2000/svg" xmlns:xlink="http://www.w3.org/1999/xlink" x="0px" y="0px"
	 viewBox="0 0 205 42" style="enable-background:new 0 0 205 42;" xml:space="preserve">
<style type="text/css">
	.st0{fill:#F2F2F2;}
</style>
<g>
	<path class="st0" d="M66.6,28.4c-1.2,0-2.2-0.4-2.9-1.3c-0.7-0.9-1-2-1-3.6c0-1.4,0.3-2.8,0.8-4.1c0.5-1.3,1.2-2.3,2.1-3.1
		c0.9-0.8,1.9-1.1,3-1.1c0.8,0,1.5,0.2,2,0.7s0.7,1.1,0.7,1.9c0,1.4-0.6,2.5-1.8,3.2c-1.2,0.7-2.9,1.1-5.3,1.1h-0.4
		c0,0.3-0.1,0.7-0.1,1.1c0,1.3,0.3,2.3,0.8,2.9c0.5,0.7,1.3,1,2.3,1c1,0,1.9-0.3,3-0.9v1.1C68.8,28.2,67.7,28.4,66.6,28.4z
		 M68.3,16.3c-0.9,0-1.8,0.4-2.6,1.3c-0.8,0.9-1.4,2.1-1.8,3.6h0.5c3.7,0,5.6-1.1,5.6-3.2c0-0.5-0.2-1-0.5-1.3
		C69.3,16.5,68.9,16.3,68.3,16.3z"/>
	<path class="st0" d="M84.2,28.2h-0.9l-5.6-15h-0.1c-0.2,1.2-0.3,2.2-0.5,3.2c-0.2,1-1,4.9-2.3,11.8h-1l3.4-17.1H78l5.6,15.1h0.1
		c0.2-1.4,0.4-3,0.8-4.9l2-10.3h1L84.2,28.2z"/>
	<path class="st0" d="M93.7,28.4c-1.2,0-2.2-0.4-2.9-1.3c-0.7-0.9-1-2-1-3.6c0-1.4,0.3-2.8,0.8-4.1c0.5-1.3,1.2-2.3,2.1-3.1
		c0.9-0.8,1.9-1.1,3-1.1c0.8,0,1.5,0.2,2,0.7s0.7,1.1,0.7,1.9c0,1.4-0.6,2.5-1.8,3.2c-1.2,0.7-2.9,1.1-5.3,1.1h-0.4
		c0,0.3-0.1,0.7-0.1,1.1c0,1.3,0.3,2.3,0.8,2.9c0.5,0.7,1.3,1,2.3,1c1,0,1.9-0.3,3-0.9v1.1C95.9,28.2,94.8,28.4,93.7,28.4z
		 M95.4,16.3c-0.9,0-1.8,0.4-2.6,1.3c-0.8,0.9-1.4,2.1-1.8,3.6h0.5c3.7,0,5.6-1.1,5.6-3.2c0-0.5-0.2-1-0.5-1.3
		C96.4,16.5,96,16.3,95.4,16.3z"/>
	<path class="st0" d="M108.8,28.2l-0.6-8c-0.1-1.7-0.2-2.8-0.2-3.1h-0.1c-0.2,0.7-0.8,1.8-1.6,3.4l-3.9,7.7h-1.3l-0.2-12.7h1
		l0.1,9.6l0,1.8h0.1c0.4-1,1-2.2,1.6-3.5l4-8h0.8l0.7,8c0.1,1.1,0.2,2.3,0.2,3.5h0.1l0.3-0.7l1.1-2.8l3.5-8h1L110,28.2H108.8z"/>
	<path class="st0" d="M123.6,24.8c0,1.1-0.4,2-1.1,2.7s-1.8,1-3,1c-1.2,0-2.3-0.3-3.3-0.9v-1.3c0.5,0.4,1.1,0.6,1.7,0.8
		s1.1,0.3,1.6,0.3c1,0,1.8-0.2,2.3-0.7c0.5-0.4,0.8-1.1,0.8-1.9c0-0.3-0.1-0.6-0.2-0.9c-0.1-0.2-0.3-0.5-0.5-0.7
		c-0.2-0.2-0.7-0.6-1.4-1c-1.1-0.6-1.8-1.2-2.2-1.7s-0.6-1.1-0.6-1.9c0-1,0.4-1.8,1.1-2.4c0.7-0.6,1.6-1,2.8-1
		c0.5,0,1.1,0.1,1.7,0.2c0.6,0.1,1.1,0.3,1.5,0.5l-0.4,1c-1-0.5-1.9-0.7-2.9-0.7c-0.8,0-1.5,0.2-2,0.6c-0.5,0.4-0.8,1-0.8,1.6
		c0,0.4,0.1,0.8,0.2,1c0.1,0.3,0.3,0.5,0.7,0.8s0.7,0.6,1.3,0.9c0.8,0.5,1.4,0.9,1.7,1.2c0.3,0.3,0.6,0.7,0.8,1
		C123.6,23.9,123.6,24.3,123.6,24.8z"/>
	<path class="st0" d="M127.8,28.2h-1l3.6-18.2h1L127.8,28.2z"/>
	<path class="st0" d="M137.3,28.4c-1.2,0-2.2-0.4-2.9-1.3c-0.7-0.9-1-2-1-3.6c0-1.4,0.3-2.8,0.8-4.1c0.5-1.3,1.2-2.3,2.1-3.1
		c0.9-0.8,1.9-1.1,3-1.1c0.8,0,1.5,0.2,2,0.7s0.7,1.1,0.7,1.9c0,1.4-0.6,2.5-1.8,3.2c-1.2,0.7-2.9,1.1-5.3,1.1h-0.4
		c0,0.3-0.1,0.7-0.1,1.1c0,1.3,0.3,2.3,0.8,2.9c0.5,0.7,1.3,1,2.3,1c1,0,1.9-0.3,3-0.9v1.1C139.5,28.2,138.4,28.4,137.3,28.4z
		 M139,16.3c-0.9,0-1.8,0.4-2.6,1.3c-0.8,0.9-1.4,2.1-1.8,3.6h0.5c3.7,0,5.6-1.1,5.6-3.2c0-0.5-0.2-1-0.5-1.3
		C140,16.5,139.6,16.3,139,16.3z"/>
	<path class="st0" d="M150.9,15.5l-0.2,0.9h-3.1l-1.5,7.4c-0.2,0.8-0.2,1.4-0.2,1.9c0,1.1,0.5,1.6,1.4,1.6c0.5,0,1-0.1,1.6-0.3v1
		c-0.7,0.2-1.3,0.3-1.8,0.3c-0.7,0-1.3-0.2-1.7-0.6c-0.4-0.4-0.6-1-0.6-1.9c0-0.6,0.1-1.4,0.3-2.4l1.4-7.1h-2l0.2-0.8l2-0.2l1-3h0.6
		l-0.6,3H150.9z"/>
	<path class="st0" d="M158.6,15.5l-0.2,0.9h-3.1l-1.5,7.4c-0.2,0.8-0.2,1.4-0.2,1.9c0,1.1,0.5,1.6,1.4,1.6c0.5,0,1-0.1,1.6-0.3v1
		c-0.7,0.2-1.3,0.3-1.8,0.3c-0.7,0-1.3-0.2-1.7-0.6c-0.4-0.4-0.6-1-0.6-1.9c0-0.6,0.1-1.4,0.3-2.4l1.4-7.1h-2l0.2-0.8l2-0.2l1-3h0.6
		l-0.6,3H158.6z"/>
	<path class="st0" d="M164,28.4c-1.2,0-2.2-0.4-2.9-1.3c-0.7-0.9-1-2-1-3.6c0-1.4,0.3-2.8,0.8-4.1c0.5-1.3,1.2-2.3,2.1-3.1
		c0.9-0.8,1.9-1.1,3-1.1c0.8,0,1.5,0.2,2,0.7s0.7,1.1,0.7,1.9c0,1.4-0.6,2.5-1.8,3.2c-1.2,0.7-2.9,1.1-5.3,1.1h-0.4
		c0,0.3-0.1,0.7-0.1,1.1c0,1.3,0.3,2.3,0.8,2.9c0.5,0.7,1.3,1,2.3,1c1,0,1.9-0.3,3-0.9v1.1C166.2,28.2,165.1,28.4,164,28.4z
		 M165.7,16.3c-0.9,0-1.8,0.4-2.6,1.3c-0.8,0.9-1.4,2.1-1.8,3.6h0.5c3.7,0,5.6-1.1,5.6-3.2c0-0.5-0.2-1-0.5-1.3
		C166.7,16.5,166.3,16.3,165.7,16.3z"/>
	<path class="st0" d="M177.8,15.3c0.5,0,0.9,0.1,1.3,0.2l-0.2,1.1c-0.3-0.1-0.7-0.2-1.2-0.2c-0.7,0-1.3,0.2-1.9,0.7
		s-1.2,1.2-1.7,2.2c-0.5,1-0.9,2.1-1.1,3.2l-1.1,5.6h-1.1l2.5-12.7h0.9l-0.3,2.4h0.1c0.5-0.7,1-1.3,1.3-1.6c0.4-0.3,0.7-0.6,1.2-0.8
		S177.3,15.3,177.8,15.3z"/>
	<path class="st0" d="M187,24.8c0,1.1-0.4,2-1.1,2.7s-1.8,1-3,1c-1.2,0-2.3-0.3-3.3-0.9v-1.3c0.5,0.4,1.1,0.6,1.7,0.8
		s1.1,0.3,1.6,0.3c1,0,1.8-0.2,2.3-0.7c0.5-0.4,0.8-1.1,0.8-1.9c0-0.3-0.1-0.6-0.2-0.9c-0.1-0.2-0.3-0.5-0.5-0.7
		c-0.2-0.2-0.7-0.6-1.4-1c-1.1-0.6-1.8-1.2-2.2-1.7s-0.6-1.1-0.6-1.9c0-1,0.4-1.8,1.1-2.4c0.7-0.6,1.6-1,2.8-1
		c0.5,0,1.1,0.1,1.7,0.2c0.6,0.1,1.1,0.3,1.5,0.5l-0.4,1c-1-0.5-1.9-0.7-2.9-0.7c-0.8,0-1.5,0.2-2,0.6c-0.5,0.4-0.8,1-0.8,1.6
		c0,0.4,0.1,0.8,0.2,1c0.1,0.3,0.3,0.5,0.7,0.8s0.7,0.6,1.3,0.9c0.8,0.5,1.4,0.9,1.7,1.2c0.3,0.3,0.6,0.7,0.8,1
		C186.9,23.9,187,24.3,187,24.8z"/>
</g>
<g>
	<rect x="25.2" y="25.9" class="st0" width="4.5" height="1.8"/>
	<rect x="32" y="25.9" class="st0" width="4.5" height="1.8"/>
	<rect x="31.9" y="22.4" class="st0" width="4.6" height="1.8"/>
	<rect x="25.2" y="22.4" class="st0" width="4.6" height="1.8"/>
	<rect x="25.1" y="18.8" class="st0" width="4.6" height="1.8"/>
	<rect x="31.9" y="18.8" class="st0" width="4.6" height="1.8"/>
	<path class="st0" d="M0,0v42h45.9V0H0z M8.9,31.7c-0.3-0.2-0.6-0.5-0.9-0.8c-0.2-0.3-0.4-0.7-0.6-1c-0.1-0.4-0.2-0.8-0.2-1.2V14.2
		l4.9,0v12c0,0.1,0,0.2,0,0.3c0,0.1,0,0.2,0,0.3c-0.1,1.1-0.3,2.1-0.6,3c-0.4,0.9-0.8,1.7-1.4,2.3C9.6,32,9.2,31.9,8.9,31.7z
		 M38.6,26.2c0,0.8-0.1,1.6-0.4,2.4c-0.3,0.7-0.6,1.4-1,1.9c-0.4,0.6-1,1-1.5,1.3c-0.6,0.3-1.2,0.5-1.9,0.5H11.1
		c0.6-0.6,1.1-1.4,1.5-2.3c0.4-0.9,0.6-2,0.7-3.1c0-0.1,0-0.2,0-0.3c0-0.1,0-0.2,0-0.3V9.8h25.3V26.2z"/>
	<rect x="15.6" y="18.8" class="st0" width="7.4" height="8.9"/>
	<rect x="15.6" y="12" class="st0" width="20.8" height="4.4"/>
</g>
</svg>
