<?xml version="1.0" encoding="utf-8"?>
<!-- Generator: Adobe Illustrator 18.1.1, SVG Export Plug-In . SVG Version: 6.00 Build 0)  -->
<svg version="1.1" class="modules-img" xmlns="http://www.w3.org/2000/svg" xmlns:xlink="http://www.w3.org/1999/xlink" x="0px" y="0px"
	 viewBox="0 0 205 42" style="enable-background:new 0 0 205 42;" xml:space="preserve">
<style type="text/css">
	.st0{fill:#F2F2F2;}
</style>
<path class="st0" d="M0,0v42h45.9V0H0z M14.7,34.6h-5V23.7h5V34.6z M21.9,34.6h-5V14.2h5V34.6z M29,34.6h-5V7.4h5V34.6z M36.2,34.6
	h-5V18.3h5V34.6z"/>
<g>
	<path class="st0" d="M66.3,19.6h4.4l-1.6,8c-1.5,0.6-3,0.9-4.4,0.9c-1.9,0-3.3-0.6-4.3-1.7c-1-1.1-1.5-2.8-1.5-4.9
		c0-2.1,0.4-3.9,1.1-5.6c0.8-1.7,1.8-3,3.1-3.9s2.7-1.4,4.3-1.4c0.8,0,1.5,0.1,2.2,0.2c0.6,0.1,1.3,0.4,2,0.7l-0.4,1.1
		c-0.8-0.4-1.5-0.6-2-0.7C68.5,12,67.9,12,67.3,12c-1.3,0-2.5,0.4-3.7,1.3c-1.1,0.8-2,2-2.6,3.5c-0.6,1.5-1,3.2-1,5.1
		c0,1.8,0.4,3.2,1.2,4.1c0.8,1,2,1.4,3.5,1.4c1.1,0,2.2-0.2,3.3-0.5l1.3-6.1h-3.3L66.3,19.6z"/>
	<path class="st0" d="M80.1,15.3c1.7,0,2.7,0.9,3,2.6h0.1l0.6-2.4h0.9l-2.5,12.7h-0.9l0.5-3.2h-0.1c-0.6,1.1-1.3,2-2,2.5
		c-0.7,0.6-1.6,0.9-2.6,0.9c-2,0-3-1.5-3-4.4c0-1.5,0.3-3,0.8-4.4c0.5-1.4,1.3-2.5,2.2-3.2S79,15.3,80.1,15.3z M77.4,27.4
		c0.6,0,1.3-0.2,1.9-0.7c0.6-0.5,1.2-1.1,1.7-1.9c0.5-0.8,0.9-1.7,1.2-2.7c0.3-1,0.4-1.8,0.4-2.5c0-0.6-0.1-1.2-0.3-1.7
		s-0.5-0.9-0.8-1.2c-0.4-0.3-0.8-0.4-1.4-0.4c-0.9,0-1.7,0.3-2.4,1c-0.7,0.6-1.3,1.6-1.8,2.9c-0.5,1.3-0.7,2.5-0.7,3.8
		c0,1.2,0.2,2.1,0.5,2.6C76.1,27.1,76.7,27.4,77.4,27.4z"/>
	<path class="st0" d="M88.2,28.2h-1.1l2.5-12.7h1L88.2,28.2z M90.1,12.2c0-0.4,0.1-0.8,0.2-1c0.2-0.3,0.4-0.4,0.6-0.4
		c0.4,0,0.6,0.3,0.6,0.8c0,0.4-0.1,0.8-0.2,1.1c-0.2,0.3-0.4,0.4-0.6,0.4c-0.2,0-0.4-0.1-0.5-0.2C90.2,12.7,90.1,12.5,90.1,12.2z"/>
	<path class="st0" d="M100.9,28.2l1.6-8.1c0.2-0.7,0.2-1.3,0.2-1.8c0-0.6-0.2-1.1-0.5-1.5c-0.3-0.4-0.8-0.5-1.5-0.5
		c-0.8,0-1.6,0.3-2.3,0.8c-0.7,0.5-1.3,1.3-1.8,2.2c-0.5,0.9-0.9,2.1-1.1,3.3l-1.1,5.6h-1.1l2.5-12.7h0.9l-0.4,2.6h0.1
		c1.2-1.9,2.7-2.8,4.5-2.8c0.9,0,1.6,0.2,2.1,0.7s0.7,1.2,0.7,2.1c0,0.5-0.1,1.3-0.3,2.1l-1.6,7.9H100.9z"/>
	<path class="st0" d="M113.8,24.8c0,1.1-0.4,2-1.1,2.7c-0.7,0.7-1.8,1-3,1c-1.2,0-2.3-0.3-3.3-0.9v-1.3c0.5,0.4,1.1,0.6,1.7,0.8
		c0.6,0.2,1.1,0.3,1.6,0.3c1,0,1.8-0.2,2.3-0.7c0.5-0.4,0.8-1.1,0.8-1.9c0-0.3-0.1-0.6-0.2-0.9c-0.1-0.2-0.3-0.5-0.5-0.7
		c-0.2-0.2-0.7-0.6-1.4-1c-1.1-0.6-1.8-1.2-2.2-1.7s-0.6-1.1-0.6-1.9c0-1,0.4-1.8,1.1-2.4c0.7-0.6,1.6-1,2.8-1
		c0.5,0,1.1,0.1,1.7,0.2c0.6,0.1,1.1,0.3,1.5,0.5l-0.4,1c-1-0.5-1.9-0.7-2.9-0.7c-0.8,0-1.5,0.2-2,0.6c-0.5,0.4-0.8,1-0.8,1.6
		c0,0.4,0.1,0.8,0.2,1c0.1,0.3,0.3,0.5,0.7,0.8s0.7,0.6,1.3,0.9c0.8,0.5,1.4,0.9,1.7,1.2s0.6,0.7,0.8,1
		C113.7,23.9,113.8,24.3,113.8,24.8z"/>
	<path class="st0" d="M126.7,28.2h-1.2l-3.7-9.2l-2.1,1.8l-1.4,7.4h-1.1l3.4-17.1h1.1l-1.7,8.4l1.4-1.4l7.4-7h1.5l-7.6,7.1
		L126.7,28.2z"/>
	<path class="st0" d="M134.4,28.4c-1.2,0-2.2-0.4-2.9-1.3c-0.7-0.9-1-2-1-3.6c0-1.4,0.3-2.8,0.8-4.1c0.5-1.3,1.2-2.3,2.1-3.1
		s1.9-1.1,3-1.1c0.8,0,1.5,0.2,2,0.7s0.7,1.1,0.7,1.9c0,1.4-0.6,2.5-1.8,3.2c-1.2,0.7-2.9,1.1-5.3,1.1h-0.4c0,0.3-0.1,0.7-0.1,1.1
		c0,1.3,0.3,2.3,0.8,2.9c0.5,0.7,1.3,1,2.3,1c1,0,1.9-0.3,3-0.9v1.1C136.7,28.2,135.6,28.4,134.4,28.4z M136.2,16.3
		c-0.9,0-1.8,0.4-2.6,1.3c-0.8,0.9-1.4,2.1-1.8,3.6h0.5c3.7,0,5.6-1.1,5.6-3.2c0-0.5-0.2-1-0.5-1.3S136.7,16.3,136.2,16.3z"/>
	<path class="st0" d="M145.6,28.4c-1.2,0-2.2-0.4-2.9-1.3c-0.7-0.9-1-2-1-3.6c0-1.4,0.3-2.8,0.8-4.1c0.5-1.3,1.2-2.3,2.1-3.1
		s1.9-1.1,3-1.1c0.8,0,1.5,0.2,2,0.7s0.7,1.1,0.7,1.9c0,1.4-0.6,2.5-1.8,3.2c-1.2,0.7-2.9,1.1-5.3,1.1h-0.4c0,0.3-0.1,0.7-0.1,1.1
		c0,1.3,0.3,2.3,0.8,2.9c0.5,0.7,1.3,1,2.3,1c1,0,1.9-0.3,3-0.9v1.1C147.8,28.2,146.7,28.4,145.6,28.4z M147.3,16.3
		c-0.9,0-1.8,0.4-2.6,1.3c-0.8,0.9-1.4,2.1-1.8,3.6h0.5c3.7,0,5.6-1.1,5.6-3.2c0-0.5-0.2-1-0.5-1.3S147.9,16.3,147.3,16.3z"/>
	<path class="st0" d="M157.1,28.4c-1.7,0-2.7-0.9-3-2.6h0c-0.1,0.6-0.6,3.3-1.6,8.1h-1.1l3.6-18.4h0.9l-0.5,3.2h0.1
		c0.7-1.2,1.4-2.1,2.1-2.6c0.8-0.6,1.6-0.8,2.5-0.8c1,0,1.7,0.4,2.3,1.1s0.8,1.8,0.8,3.3c0,1.5-0.3,3-0.8,4.3
		c-0.5,1.4-1.2,2.4-2.1,3.2C159.2,28,158.2,28.4,157.1,28.4z M159.8,16.3c-0.6,0-1.3,0.2-1.9,0.7c-0.6,0.5-1.2,1.1-1.7,2
		c-0.5,0.8-0.9,1.8-1.2,2.8c-0.3,1-0.4,1.8-0.4,2.4c0,1,0.2,1.8,0.7,2.3s1.1,0.9,1.8,0.9c0.9,0,1.7-0.3,2.4-1
		c0.7-0.7,1.3-1.6,1.8-2.8c0.5-1.2,0.7-2.5,0.7-3.8C161.9,17.5,161.2,16.3,159.8,16.3z"/>
	<path class="st0" d="M170.3,28.4c-1.2,0-2.2-0.4-2.9-1.3c-0.7-0.9-1-2-1-3.6c0-1.4,0.3-2.8,0.8-4.1c0.5-1.3,1.2-2.3,2.1-3.1
		c0.9-0.8,1.9-1.1,3-1.1c0.8,0,1.5,0.2,2,0.7s0.7,1.1,0.7,1.9c0,1.4-0.6,2.5-1.8,3.2s-2.9,1.1-5.3,1.1h-0.4c0,0.3-0.1,0.7-0.1,1.1
		c0,1.3,0.3,2.3,0.8,2.9s1.3,1,2.3,1c1,0,1.9-0.3,3-0.9v1.1C172.5,28.2,171.4,28.4,170.3,28.4z M172,16.3c-0.9,0-1.8,0.4-2.6,1.3
		c-0.8,0.9-1.4,2.1-1.8,3.6h0.5c3.7,0,5.6-1.1,5.6-3.2c0-0.5-0.2-1-0.5-1.3C173,16.5,172.6,16.3,172,16.3z"/>
	<path class="st0" d="M184.1,15.3c0.5,0,0.9,0.1,1.3,0.2l-0.2,1.1c-0.3-0.1-0.7-0.2-1.2-0.2c-0.7,0-1.3,0.2-1.9,0.7
		c-0.6,0.5-1.2,1.2-1.7,2.2c-0.5,1-0.9,2.1-1.1,3.2l-1.1,5.6h-1.1l2.5-12.7h0.9l-0.3,2.4h0.1c0.5-0.7,1-1.3,1.3-1.6s0.7-0.6,1.2-0.8
		S183.6,15.3,184.1,15.3z"/>
</g>
<g>
	<path class="st0" d="M186.5,14.2c0-0.5,0.1-0.9,0.4-1.4s0.6-0.8,1-1c0.4-0.2,0.9-0.4,1.4-0.4c0.5,0,0.9,0.1,1.4,0.4
		c0.4,0.2,0.8,0.6,1,1s0.4,0.9,0.4,1.4c0,0.5-0.1,0.9-0.4,1.4c-0.2,0.4-0.6,0.8-1,1c-0.4,0.3-0.9,0.4-1.4,0.4c-0.5,0-1-0.1-1.4-0.4
		c-0.4-0.3-0.8-0.6-1-1C186.6,15.1,186.5,14.7,186.5,14.2z M186.8,14.2c0,0.4,0.1,0.8,0.3,1.2c0.2,0.4,0.5,0.7,0.9,0.9
		c0.4,0.2,0.8,0.3,1.2,0.3c0.4,0,0.8-0.1,1.2-0.3c0.4-0.2,0.7-0.5,0.9-0.9c0.2-0.4,0.3-0.8,0.3-1.2c0-0.4-0.1-0.8-0.3-1.2
		s-0.5-0.7-0.9-0.9c-0.4-0.2-0.8-0.3-1.2-0.3c-0.4,0-0.8,0.1-1.2,0.3c-0.4,0.2-0.7,0.5-0.9,0.9S186.8,13.8,186.8,14.2z M190.2,13.5
		c0,0.2,0,0.4-0.1,0.5c-0.1,0.1-0.2,0.3-0.4,0.3l0.9,1.4h-0.4l-0.8-1.3h-0.6v1.3h-0.4v-3.2h0.8c0.4,0,0.6,0.1,0.8,0.2
		C190.1,13,190.2,13.2,190.2,13.5z M188.7,14.2h0.4c0.2,0,0.4-0.1,0.5-0.2c0.1-0.1,0.2-0.3,0.2-0.5c0-0.4-0.2-0.6-0.7-0.6h-0.4V14.2
		z"/>
</g>
</svg>
