<?xml version="1.0" encoding="utf-8"?>
<!-- Generator: Adobe Illustrator 18.1.1, SVG Export Plug-In . SVG Version: 6.00 Build 0)  -->
<svg version="1.1" class="modules-img" xmlns="http://www.w3.org/2000/svg" xmlns:xlink="http://www.w3.org/1999/xlink" x="0px" y="0px"
	 viewBox="0 0 205 42" style="enable-background:new 0 0 205 42;" xml:space="preserve">
<style type="text/css">
	.st0{fill:#F2F2F2;}
</style>
<g>
	<path class="st0" d="M78.3,28.2h-0.9l-5.6-15h-0.1c-0.2,1.2-0.3,2.2-0.5,3.2c-0.2,1-1,4.9-2.3,11.8h-1l3.4-17.1h0.9l5.6,15.1h0.1
		c0.2-1.4,0.4-3,0.8-4.9l2-10.3h1L78.3,28.2z"/>
	<path class="st0" d="M89.7,15.3c1.3,0,2.3,0.4,3,1.3c0.7,0.8,1.1,2,1.1,3.5c0,1.5-0.3,3-0.8,4.3s-1.2,2.4-2.1,3.1
		c-0.9,0.7-1.9,1.1-3.1,1.1c-1.3,0-2.3-0.4-3-1.3c-0.7-0.9-1-2.1-1-3.7c0-1.5,0.3-2.9,0.8-4.2s1.2-2.3,2.1-3
		C87.6,15.6,88.6,15.3,89.7,15.3z M89.7,16.3c-0.9,0-1.7,0.3-2.4,0.9s-1.3,1.5-1.7,2.6c-0.4,1.1-0.6,2.3-0.6,3.6c0,2.7,1,4,3.1,4
		c0.9,0,1.7-0.3,2.4-0.9c0.7-0.6,1.3-1.5,1.7-2.7c0.4-1.2,0.6-2.5,0.6-3.9c0-1.2-0.3-2.1-0.8-2.8S90.6,16.3,89.7,16.3z"/>
	<path class="st0" d="M100.1,15.5l-1.6,8.2c-0.2,0.8-0.2,1.4-0.2,1.8c0,0.6,0.2,1,0.5,1.4c0.3,0.3,0.8,0.5,1.5,0.5
		c0.8,0,1.5-0.3,2.2-0.8s1.3-1.2,1.8-2.2s0.8-2,1.1-3.3l1.1-5.7h1.1L105,28.2h-0.9l0.3-2.4h-0.1c-1.2,1.7-2.7,2.6-4.4,2.6
		c-0.9,0-1.7-0.2-2.1-0.7c-0.5-0.5-0.7-1.2-0.7-2.1c0-0.5,0.1-1.1,0.2-2l1.6-8.1H100.1z"/>
	<path class="st0" d="M117.2,24.8c0,1.1-0.4,2-1.1,2.7s-1.8,1-3,1c-1.2,0-2.3-0.3-3.3-0.9v-1.3c0.5,0.4,1.1,0.6,1.7,0.8
		c0.6,0.2,1.1,0.3,1.6,0.3c1,0,1.8-0.2,2.3-0.7c0.5-0.4,0.8-1.1,0.8-1.9c0-0.3-0.1-0.6-0.2-0.9c-0.1-0.2-0.3-0.5-0.5-0.7
		c-0.2-0.2-0.7-0.6-1.4-1c-1.1-0.6-1.8-1.2-2.2-1.7c-0.4-0.5-0.6-1.1-0.6-1.9c0-1,0.4-1.8,1.1-2.4c0.7-0.6,1.6-1,2.8-1
		c0.5,0,1.1,0.1,1.7,0.2c0.6,0.1,1.1,0.3,1.5,0.5l-0.4,1c-1-0.5-1.9-0.7-2.9-0.7c-0.8,0-1.5,0.2-2,0.6c-0.5,0.4-0.8,1-0.8,1.6
		c0,0.4,0.1,0.8,0.2,1c0.1,0.3,0.3,0.5,0.7,0.8s0.7,0.6,1.3,0.9c0.8,0.5,1.4,0.9,1.7,1.2c0.3,0.3,0.6,0.7,0.8,1
		C117.1,23.9,117.2,24.3,117.2,24.8z"/>
	<path class="st0" d="M131.4,28.4c-1.2,0-2.2-0.4-2.9-1.3c-0.7-0.9-1-2-1-3.6c0-1.4,0.3-2.8,0.8-4.1c0.5-1.3,1.2-2.3,2.1-3.1
		c0.9-0.8,1.9-1.1,3-1.1c0.8,0,1.5,0.2,2,0.7c0.5,0.5,0.7,1.1,0.7,1.9c0,1.4-0.6,2.5-1.8,3.2c-1.2,0.7-2.9,1.1-5.3,1.1h-0.4
		c0,0.3-0.1,0.7-0.1,1.1c0,1.3,0.3,2.3,0.8,2.9c0.5,0.7,1.3,1,2.3,1c1,0,1.9-0.3,3-0.9v1.1C133.7,28.2,132.6,28.4,131.4,28.4z
		 M133.2,16.3c-0.9,0-1.8,0.4-2.6,1.3c-0.8,0.9-1.4,2.1-1.8,3.6h0.5c3.7,0,5.6-1.1,5.6-3.2c0-0.5-0.2-1-0.5-1.3
		C134.1,16.5,133.7,16.3,133.2,16.3z M132.1,13.5c0.5-0.4,1-1,1.6-1.7c0.6-0.7,1.1-1.4,1.4-1.9h1.5v0.3c-0.4,0.5-0.9,1.1-1.7,1.9
		c-0.8,0.7-1.5,1.3-2.1,1.7h-0.7V13.5z"/>
	<path class="st0" d="M142.7,28.4c-1.3,0-2.2-0.4-3-1.3s-1.1-2.1-1.1-3.6c0-1.5,0.3-2.9,0.8-4.2c0.5-1.3,1.2-2.3,2.1-3
		c0.9-0.7,1.9-1,3.1-1c1,0,1.8,0.2,2.6,0.5l-0.3,1.1c-0.8-0.4-1.6-0.5-2.4-0.5c-0.9,0-1.8,0.3-2.5,0.9c-0.7,0.6-1.3,1.5-1.8,2.6
		c-0.4,1.1-0.6,2.4-0.6,3.7c0,1.2,0.3,2.2,0.8,2.8c0.5,0.7,1.3,1,2.3,1c0.5,0,1,0,1.4-0.2c0.4-0.1,0.9-0.3,1.4-0.5v1.1
		C144.8,28.2,143.8,28.4,142.7,28.4z"/>
	<path class="st0" d="M155.9,15.3c0.5,0,0.9,0.1,1.3,0.2l-0.2,1.1c-0.3-0.1-0.7-0.2-1.2-0.2c-0.7,0-1.3,0.2-1.9,0.7
		c-0.6,0.5-1.2,1.2-1.7,2.2c-0.5,1-0.9,2.1-1.1,3.2l-1.1,5.6H149l2.5-12.7h0.9l-0.3,2.4h0.1c0.5-0.7,1-1.3,1.3-1.6
		c0.4-0.3,0.7-0.6,1.2-0.8C155,15.4,155.5,15.3,155.9,15.3z"/>
	<path class="st0" d="M159.3,28.2h-1.1l2.5-12.7h1L159.3,28.2z M161.3,12.2c0-0.4,0.1-0.8,0.2-1s0.4-0.4,0.6-0.4
		c0.4,0,0.6,0.3,0.6,0.8c0,0.4-0.1,0.8-0.2,1.1c-0.2,0.3-0.4,0.4-0.6,0.4c-0.2,0-0.4-0.1-0.5-0.2C161.3,12.7,161.3,12.5,161.3,12.2z
		"/>
	<path class="st0" d="M171.4,15.3c0.5,0,0.9,0.1,1.3,0.2l-0.2,1.1c-0.3-0.1-0.7-0.2-1.2-0.2c-0.7,0-1.3,0.2-1.9,0.7
		c-0.6,0.5-1.2,1.2-1.7,2.2c-0.5,1-0.9,2.1-1.1,3.2l-1.1,5.6h-1.1l2.5-12.7h0.9l-0.3,2.4h0.1c0.5-0.7,1-1.3,1.3-1.6
		c0.4-0.3,0.7-0.6,1.2-0.8C170.5,15.4,170.9,15.3,171.4,15.3z"/>
	<path class="st0" d="M178,28.4c-1.2,0-2.2-0.4-2.9-1.3c-0.7-0.9-1-2-1-3.6c0-1.4,0.3-2.8,0.8-4.1c0.5-1.3,1.2-2.3,2.1-3.1
		c0.9-0.8,1.9-1.1,3-1.1c0.8,0,1.5,0.2,2,0.7c0.5,0.5,0.7,1.1,0.7,1.9c0,1.4-0.6,2.5-1.8,3.2c-1.2,0.7-2.9,1.1-5.3,1.1h-0.4
		c0,0.3-0.1,0.7-0.1,1.1c0,1.3,0.3,2.3,0.8,2.9c0.5,0.7,1.3,1,2.3,1c1,0,1.9-0.3,3-0.9v1.1C180.2,28.2,179.2,28.4,178,28.4z
		 M179.8,16.3c-0.9,0-1.8,0.4-2.6,1.3c-0.8,0.9-1.4,2.1-1.8,3.6h0.5c3.7,0,5.6-1.1,5.6-3.2c0-0.5-0.2-1-0.5-1.3
		C180.7,16.5,180.3,16.3,179.8,16.3z"/>
</g>
<path class="st0" d="M0,0v42h45.9V0H0z M36.4,33.4l-0.4,1c-0.3,0.3-0.6,0.4-0.9,0.4H10.8c-0.4,0-0.7-0.1-0.9-0.4l-0.4-1V18.9
	l5.3,4.3l6.7,5.4c0.4,0.3,0.9,0.5,1.5,0.5s1.1-0.2,1.5-0.5l6.7-5.4l5.3-4.3V33.4z M34.7,18.8c-0.5,0.4-0.9,0.8-1.3,1.1
	s-0.7,0.6-1,0.8v-1.8c0-0.2,0-0.4-0.1-0.6c-0.1-0.2-0.2-0.3-0.3-0.5s-0.3-0.2-0.4-0.3s-0.3-0.1-0.5-0.1H14.8c-0.2,0-0.4,0-0.5,0.1
	s-0.3,0.2-0.4,0.3s-0.2,0.3-0.3,0.5c-0.1,0.2-0.1,0.4-0.1,0.6v1.8l-0.6-0.6l-3.4-2.7l5.3-4.3l6.7-5.4c0.4-0.4,0.9-0.5,1.5-0.5
	s1,0.2,1.5,0.5l6.7,5.4l5.3,4.3L34.7,18.8z"/>
</svg>
