<?xml version="1.0" encoding="utf-8"?>
<!-- Generator: Adobe Illustrator 18.1.1, SVG Export Plug-In . SVG Version: 6.00 Build 0)  -->
<svg version="1.1" class="modules-img" xmlns="http://www.w3.org/2000/svg" xmlns:xlink="http://www.w3.org/1999/xlink" x="0px" y="0px"
	 viewBox="0 0 205 42" style="enable-background:new 0 0 205 42;" xml:space="preserve">
<style type="text/css">
	.st0{fill:#F2F2F2;}
</style>
<g>
	<path class="st0" d="M73.7,25.8l7.9-14.7h1.6L80,28.2h-1.1L81,17.7c0.6-2.9,0.9-4.6,1.1-5.2H82l-8.4,15.7H73l-2.4-15.7h-0.1
		c-0.1,1.2-0.4,2.9-0.8,5l-2.1,10.8h-1l3.3-17.1h1.5L73.7,25.8L73.7,25.8z"/>
	<path class="st0" d="M89.6,28.4c-1.2,0-2.2-0.4-2.9-1.3c-0.7-0.9-1-2-1-3.6c0-1.4,0.3-2.8,0.8-4.1c0.5-1.3,1.2-2.3,2.1-3.1
		c0.9-0.8,1.9-1.1,3-1.1c0.8,0,1.5,0.2,2,0.7c0.5,0.5,0.7,1.1,0.7,1.9c0,1.4-0.6,2.5-1.8,3.2c-1.2,0.7-2.9,1.1-5.3,1.1h-0.4
		c0,0.3-0.1,0.7-0.1,1.1c0,1.3,0.3,2.3,0.8,2.9c0.5,0.7,1.3,1,2.3,1c1,0,1.9-0.3,3-0.9v1.1C91.8,28.2,90.8,28.4,89.6,28.4z
		 M91.4,16.3c-0.9,0-1.8,0.5-2.6,1.3c-0.8,0.9-1.4,2.1-1.8,3.6h0.5c3.7,0,5.6-1.1,5.6-3.2c0-0.5-0.2-1-0.5-1.3
		C92.3,16.5,91.9,16.3,91.4,16.3z"/>
	<path class="st0" d="M103.4,24.8c0,1.1-0.4,2-1.1,2.7s-1.8,1-3,1c-1.2,0-2.3-0.3-3.3-0.9v-1.3c0.5,0.4,1.1,0.6,1.7,0.8
		c0.6,0.2,1.1,0.3,1.6,0.3c1,0,1.8-0.2,2.3-0.7s0.8-1.1,0.8-1.9c0-0.3-0.1-0.6-0.2-0.9s-0.3-0.5-0.5-0.7c-0.2-0.2-0.7-0.6-1.4-1
		c-1.1-0.6-1.8-1.2-2.2-1.7c-0.4-0.5-0.6-1.1-0.6-1.9c0-1,0.4-1.8,1.1-2.4c0.7-0.6,1.6-1,2.8-1c0.5,0,1.1,0.1,1.7,0.2
		c0.6,0.1,1.1,0.3,1.5,0.5l-0.4,1c-1-0.5-1.9-0.7-2.9-0.7c-0.8,0-1.5,0.2-2,0.6c-0.5,0.4-0.8,1-0.8,1.6c0,0.4,0.1,0.8,0.2,1
		c0.1,0.3,0.3,0.5,0.7,0.8s0.7,0.6,1.3,0.9c0.8,0.5,1.4,0.9,1.7,1.2c0.3,0.3,0.6,0.7,0.8,1C103.3,23.9,103.4,24.3,103.4,24.8z"/>
	<path class="st0" d="M113.5,24.8c0,1.1-0.4,2-1.1,2.7s-1.8,1-3,1c-1.2,0-2.3-0.3-3.3-0.9v-1.3c0.5,0.4,1.1,0.6,1.7,0.8
		c0.6,0.2,1.1,0.3,1.6,0.3c1,0,1.8-0.2,2.3-0.7s0.8-1.1,0.8-1.9c0-0.3-0.1-0.6-0.2-0.9s-0.3-0.5-0.5-0.7c-0.2-0.2-0.7-0.6-1.4-1
		c-1.1-0.6-1.8-1.2-2.2-1.7c-0.4-0.5-0.6-1.1-0.6-1.9c0-1,0.4-1.8,1.1-2.4c0.7-0.6,1.6-1,2.8-1c0.5,0,1.1,0.1,1.7,0.2
		c0.6,0.1,1.1,0.3,1.5,0.5l-0.4,1c-1-0.5-1.9-0.7-2.9-0.7c-0.8,0-1.5,0.2-2,0.6c-0.5,0.4-0.8,1-0.8,1.6c0,0.4,0.1,0.8,0.2,1
		c0.1,0.3,0.3,0.5,0.7,0.8s0.7,0.6,1.3,0.9c0.8,0.5,1.4,0.9,1.7,1.2c0.3,0.3,0.6,0.7,0.8,1C113.4,23.9,113.5,24.3,113.5,24.8z"/>
	<path class="st0" d="M122.9,15.3c1.7,0,2.7,0.9,3,2.6h0.1l0.6-2.4h0.9L125,28.2h-0.9l0.5-3.2h-0.1c-0.6,1.1-1.3,2-2,2.5
		c-0.7,0.6-1.6,0.9-2.6,0.9c-2,0-3-1.5-3-4.4c0-1.5,0.3-3,0.8-4.4c0.5-1.4,1.3-2.5,2.2-3.2C120.8,15.7,121.8,15.3,122.9,15.3z
		 M120.2,27.4c0.6,0,1.3-0.2,1.9-0.7c0.6-0.5,1.2-1.1,1.7-1.9c0.5-0.8,0.9-1.7,1.2-2.7s0.4-1.8,0.4-2.5c0-0.6-0.1-1.2-0.3-1.7
		c-0.2-0.5-0.5-0.9-0.8-1.2s-0.8-0.4-1.4-0.4c-0.9,0-1.7,0.3-2.4,1s-1.3,1.6-1.8,2.9s-0.7,2.5-0.7,3.8c0,1.2,0.2,2.1,0.5,2.6
		C118.9,27.1,119.5,27.4,120.2,27.4z"/>
	<path class="st0" d="M141.1,15.5l-0.2,0.9l-2.6,0.1c0.2,0.2,0.3,0.5,0.5,1c0.1,0.4,0.2,0.9,0.2,1.3c0,0.8-0.2,1.7-0.6,2.4
		c-0.4,0.8-0.9,1.3-1.6,1.7s-1.4,0.6-2.3,0.6c-0.5,0-0.7,0-0.8-0.1c-0.6,0.3-1,0.5-1.3,0.9s-0.5,0.6-0.5,0.9s0.1,0.6,0.3,0.8
		c0.2,0.2,0.6,0.3,1.2,0.4l1.3,0.1c2.5,0.2,3.7,1.3,3.7,3.1c0,0.9-0.2,1.6-0.7,2.3c-0.5,0.7-1.1,1.2-2,1.5c-0.9,0.4-1.9,0.5-3.1,0.5
		c-1.3,0-2.4-0.3-3.2-0.8c-0.8-0.6-1.1-1.4-1.1-2.4c0-1.8,1.1-3.1,3.3-3.9c-0.6-0.3-0.8-0.8-0.8-1.4c0-1,0.7-1.7,2.1-2.4
		c-0.5-0.3-0.9-0.7-1.2-1.2c-0.3-0.5-0.4-1.2-0.4-1.8c0-0.9,0.2-1.7,0.6-2.4s0.9-1.3,1.6-1.7c0.7-0.4,1.4-0.6,2.2-0.6
		c0.5,0,1,0.1,1.6,0.2H141.1z M129.3,30.6c0,0.8,0.3,1.4,0.9,1.8c0.6,0.4,1.4,0.6,2.4,0.6c1.5,0,2.6-0.3,3.4-0.9
		c0.8-0.6,1.2-1.4,1.2-2.4c0-0.7-0.2-1.2-0.7-1.5c-0.5-0.4-1.2-0.6-2.4-0.7l-1.7-0.2c-1.1,0.4-1.9,0.8-2.4,1.3
		S129.3,29.8,129.3,30.6z M132.2,19.9c0,0.9,0.2,1.5,0.6,2c0.4,0.5,1,0.7,1.8,0.7c0.6,0,1.2-0.1,1.7-0.4c0.5-0.3,0.8-0.7,1.1-1.3
		s0.4-1.3,0.4-2c0-0.8-0.2-1.4-0.6-1.9c-0.4-0.4-1-0.7-1.7-0.7c-0.7,0-1.3,0.2-1.7,0.5c-0.5,0.3-0.9,0.8-1.1,1.4
		C132.4,18.7,132.2,19.3,132.2,19.9z"/>
	<path class="st0" d="M146.6,28.4c-1.2,0-2.2-0.4-2.9-1.3c-0.7-0.9-1-2-1-3.6c0-1.4,0.3-2.8,0.8-4.1c0.5-1.3,1.2-2.3,2.1-3.1
		c0.9-0.8,1.9-1.1,3-1.1c0.8,0,1.5,0.2,2,0.7c0.5,0.5,0.7,1.1,0.7,1.9c0,1.4-0.6,2.5-1.8,3.2c-1.2,0.7-2.9,1.1-5.3,1.1h-0.4
		c0,0.3-0.1,0.7-0.1,1.1c0,1.3,0.3,2.3,0.8,2.9c0.5,0.7,1.3,1,2.3,1c1,0,1.9-0.3,3-0.9v1.1C148.8,28.2,147.7,28.4,146.6,28.4z
		 M148.3,16.3c-0.9,0-1.8,0.5-2.6,1.3c-0.8,0.9-1.4,2.1-1.8,3.6h0.5c3.7,0,5.6-1.1,5.6-3.2c0-0.5-0.2-1-0.5-1.3
		C149.3,16.5,148.9,16.3,148.3,16.3z"/>
	<path class="st0" d="M174.6,11.1l-2.2,11.4c-0.4,2.1-1.1,3.6-2.1,4.5c-1,0.9-2.4,1.4-4.1,1.4c-3.2,0-4.8-1.6-4.8-4.7
		c0-0.6,0.1-1.4,0.3-2.3l2-10.3h1.1l-2.1,10.5c-0.1,0.7-0.2,1.4-0.2,2.1c0,2.4,1.2,3.6,3.7,3.6c1.4,0,2.5-0.4,3.3-1.1
		c0.8-0.8,1.4-2,1.7-3.7l2.2-11.4H174.6z"/>
	<path class="st0" d="M183.2,24.8c0,1.1-0.4,2-1.1,2.7s-1.8,1-3,1c-1.2,0-2.3-0.3-3.3-0.9v-1.3c0.5,0.4,1.1,0.6,1.7,0.8
		c0.6,0.2,1.1,0.3,1.6,0.3c1,0,1.8-0.2,2.3-0.7s0.8-1.1,0.8-1.9c0-0.3-0.1-0.6-0.2-0.9s-0.3-0.5-0.5-0.7c-0.2-0.2-0.7-0.6-1.4-1
		c-1.1-0.6-1.8-1.2-2.2-1.7c-0.4-0.5-0.6-1.1-0.6-1.9c0-1,0.4-1.8,1.1-2.4c0.7-0.6,1.6-1,2.8-1c0.5,0,1.1,0.1,1.7,0.2
		c0.6,0.1,1.1,0.3,1.5,0.5l-0.4,1c-1-0.5-1.9-0.7-2.9-0.7c-0.8,0-1.5,0.2-2,0.6c-0.5,0.4-0.8,1-0.8,1.6c0,0.4,0.1,0.8,0.2,1
		c0.1,0.3,0.3,0.5,0.7,0.8s0.7,0.6,1.3,0.9c0.8,0.5,1.4,0.9,1.7,1.2c0.3,0.3,0.6,0.7,0.8,1C183.1,23.9,183.2,24.3,183.2,24.8z"/>
</g>
<path class="st0" d="M0,0v42h45.9V0H0z M36.4,33.4l-0.4,1c-0.3,0.3-0.6,0.4-0.9,0.4H10.8c-0.4,0-0.7-0.1-0.9-0.4l-0.4-1V18.9
	l5.3,4.3l6.7,5.4c0.4,0.3,0.9,0.5,1.5,0.5s1.1-0.2,1.5-0.5l6.7-5.4l5.3-4.3V33.4z M34.7,18.8c-0.5,0.4-0.9,0.8-1.3,1.1
	s-0.7,0.6-1,0.8v-1.8c0-0.2,0-0.4-0.1-0.6c-0.1-0.2-0.2-0.3-0.3-0.5s-0.3-0.2-0.4-0.3s-0.3-0.1-0.5-0.1H14.8c-0.2,0-0.4,0-0.5,0.1
	s-0.3,0.2-0.4,0.3s-0.2,0.3-0.3,0.5c-0.1,0.2-0.1,0.4-0.1,0.6v1.8l-0.6-0.6l-3.4-2.7l5.3-4.3l6.7-5.4c0.4-0.4,0.9-0.5,1.5-0.5
	s1,0.2,1.5,0.5l6.7,5.4l5.3,4.3L34.7,18.8z"/>
</svg>
