<?xml version="1.0" encoding="utf-8"?>
<!-- Generator: Adobe Illustrator 18.1.1, SVG Export Plug-In . SVG Version: 6.00 Build 0)  -->
<svg version="1.1" class="social-icon" xmlns="http://www.w3.org/2000/svg" xmlns:xlink="http://www.w3.org/1999/xlink" x="0px" y="0px"
	 viewBox="0 0 26 26" style="enable-background:new 0 0 26 26;" xml:space="preserve">
<style type="text/css">
	.Arched_x0020_Green{fill:url(#SVGID_1_);stroke:#FFFFFF;stroke-width:0.25;stroke-miterlimit:1;}
	.st0{opacity:0;fill:#FFFFFF;}
	.st1{fill:#FFFFFF;}
</style>
<linearGradient id="SVGID_1_" gradientUnits="userSpaceOnUse" x1="-92" y1="26" x2="-91.2929" y2="25.2929">
	<stop  offset="0" style="stop-color:#20AC4B"/>
	<stop  offset="0.9831" style="stop-color:#19361A"/>
</linearGradient>
<circle class="st0" cx="13" cy="13" r="13"/>
<g>
	<path class="st1" d="M9.5,6.7c0,1.1-0.9,2.1-2.1,2.1c-1.1,0-2-0.9-2-2.1c0-1.1,0.9-2.1,2-2.1C8.6,4.6,9.5,5.5,9.5,6.7z M5.8,21.4
		V9.9h3.3v11.5H5.8z M14.1,9.9v0.5c1.3-0.7,3-0.5,4.3,0.1c1.3,0.7,2.2,2.3,2.2,3.8v7h-3.3v-7c0-0.3-0.3-0.9-0.6-1
		c-1.3-0.7-2.7,0.6-2.7,0.6v7.4h-3.3V9.9H14.1z"/>
</g>
</svg>
