<?xml version="1.0" encoding="utf-8"?>
<!-- Generator: Adobe Illustrator 18.1.1, SVG Export Plug-In . SVG Version: 6.00 Build 0)  -->
<svg version="1.1" class="social-icon" xmlns="http://www.w3.org/2000/svg" xmlns:xlink="http://www.w3.org/1999/xlink" x="0px" y="0px"
	 viewBox="0 0 26 26" style="enable-background:new 0 0 26 26;" xml:space="preserve">
<style type="text/css">
	.Arched_x0020_Green{fill:url(#SVGID_1_);stroke:#FFFFFF;stroke-width:0.25;stroke-miterlimit:1;}
	.st0{opacity:0;fill:#FFFFFF;}
	.st1{fill:#FFFFFF;}
</style>
<linearGradient id="SVGID_1_" gradientUnits="userSpaceOnUse" x1="-46" y1="26" x2="-45.2929" y2="25.2929">
	<stop  offset="0" style="stop-color:#20AC4B"/>
	<stop  offset="0.9831" style="stop-color:#19361A"/>
</linearGradient>
<circle class="st0" cx="13" cy="13" r="13"/>
<g>
	<path class="st1" d="M20.2,9.3c0,0.1,0,0.3,0,0.4c0,5-3.7,10.6-10.6,10.6c-2.1,0-4.1-0.6-5.7-1.7c0.3,0,0.6,0,0.9,0
		c1.7,0,3.3-0.6,4.6-1.6c-1.6,0-3-1.1-3.5-2.6c0.2,0.1,0.4,0.1,0.7,0.1c0.4,0,0.7-0.1,1-0.1c-1.7-0.4-3-1.9-3-3.7c0,0,0,0,0,0
		c0.5,0.2,1.1,0.4,1.7,0.4c-1.1-0.6-1.7-1.8-1.7-3.1c0-0.7,0.2-1.3,0.5-1.9c1.9,2.3,4.6,3.8,7.7,3.9c-0.1-0.2-0.1-0.6-0.1-0.8
		c0-2.1,1.7-3.8,3.7-3.8c1.1,0,2,0.5,2.7,1.2c0.8-0.1,1.7-0.5,2.4-0.9c-0.3,0.8-0.9,1.5-1.6,2c0.8-0.1,1.5-0.3,2.1-0.6
		C21.6,8.1,20.9,8.8,20.2,9.3z"/>
</g>
</svg>
