<?xml version="1.0" encoding="utf-8"?>
<!-- Generator: Adobe Illustrator 18.1.1, SVG Export Plug-In . SVG Version: 6.00 Build 0)  -->
<svg version="1.1" class="social-icon" xmlns="http://www.w3.org/2000/svg" xmlns:xlink="http://www.w3.org/1999/xlink" x="0px" y="0px"
	 viewBox="0 0 26 26" style="enable-background:new 0 0 26 26;" xml:space="preserve">
<style type="text/css">
	.Arched_x0020_Green{fill:url(#SVGID_1_);stroke:#FFFFFF;stroke-width:0.25;stroke-miterlimit:1;}
	.st0{opacity:0;fill:#FFFFFF;}
	.st1{fill:#FFFFFF;}
</style>
<linearGradient id="SVGID_1_" gradientUnits="userSpaceOnUse" x1="-138" y1="26" x2="-137.2929" y2="25.2929">
	<stop  offset="0" style="stop-color:#20AC4B"/>
	<stop  offset="0.9831" style="stop-color:#19361A"/>
</linearGradient>
<circle class="st0" cx="13" cy="13" r="13"/>
<g>
	<path class="st1" d="M21.7,17.4c-0.2,1-1,1.7-1.9,1.8c-2.2,0.3-4.5,0.3-6.8,0.3s-4.5,0-6.8-0.3c-0.9-0.1-1.7-0.8-2-1.8
		C4,16,4,14.4,4,13c0-1.4,0-3,0.3-4.4c0.2-1,1-1.7,1.9-1.8c2.2-0.3,4.5-0.3,6.8-0.3s4.5,0,6.8,0.3c0.9,0.1,1.7,0.8,2,1.8
		C22,10,22,11.6,22,13C22,14.4,22,16,21.7,17.4z M16.6,12.5l-5.2-3.2c-0.2-0.1-0.5-0.1-0.7,0c-0.2,0.1-0.3,0.3-0.3,0.6v6.4
		c0,0.2,0.1,0.5,0.3,0.6c0.1,0.1,0.2,0.1,0.3,0.1c0.1,0,0.2,0,0.3-0.1l5.2-3.2c0.2-0.1,0.3-0.3,0.3-0.5
		C16.9,12.8,16.8,12.6,16.6,12.5z"/>
</g>
</svg>
